<?xml version="1.0" encoding="UTF-8" standalone="no"?>
<!DOCTYPE svg PUBLIC "-//W3C//DTD SVG 1.1//EN"
 "http://www.w3.org/Graphics/SVG/1.1/DTD/svg11.dtd">
<!-- Generated by graphviz version 8.0.5 (20230508.1809)
 -->
<!-- Title: demo_db Pages: 1 -->
<svg width="158pt" height="419pt"
 viewBox="0.00 0.00 157.50 419.00" xmlns="http://www.w3.org/2000/svg" xmlns:xlink="http://www.w3.org/1999/xlink">
<g id="graph0" class="graph" transform="scale(1 1) rotate(0) translate(4 415)">
<title>demo_db</title>
<polygon fill="white" stroke="none" points="-4,4 -4,-415 153.5,-415 153.5,4 -4,4"/>
<!-- school -->
<g id="node1" class="node">
<title>school</title>
<polygon fill="none" stroke="black" points="11.25,-0.5 11.25,-74 138.25,-74 138.25,-0.5 11.25,-0.5"/>
<text text-anchor="middle" x="74.75" y="-56.7" font-family="Times,serif" font-size="14.00">school</text>
<polyline fill="none" stroke="black" points="11.25,-49.5 138.25,-49.5"/>
<text text-anchor="start" x="19.25" y="-32.2" font-family="Times,serif" font-size="14.00">name : varchar(255)</text>
<polyline fill="none" stroke="black" points="11.25,-25 138.25,-25"/>
<text text-anchor="start" x="19.25" y="-7.7" font-family="Times,serif" font-size="14.00">id : integer</text>
</g>
<!-- student_profile -->
<g id="node2" class="node">
<title>student_profile</title>
<polygon fill="none" stroke="black" points="14.25,-320.5 14.25,-410.5 135.25,-410.5 135.25,-320.5 14.25,-320.5"/>
<text text-anchor="middle" x="74.75" y="-393.2" font-family="Times,serif" font-size="14.00">student_profile</text>
<polyline fill="none" stroke="black" points="14.25,-386 135.25,-386"/>
<text text-anchor="start" x="22.25" y="-368.7" font-family="Times,serif" font-size="14.00">student_id : integer</text>
<text text-anchor="start" x="22.25" y="-352.2" font-family="Times,serif" font-size="14.00"> bio : varchar(255)</text>
<polyline fill="none" stroke="black" points="14.25,-345 135.25,-345"/>
<text text-anchor="start" x="22.25" y="-327.7" font-family="Times,serif" font-size="14.00">id : integer</text>
</g>
<!-- t_student -->
<g id="node3" class="node">
<title>t_student</title>
<polygon fill="none" stroke="black" points="0,-127.5 0,-267 149.5,-267 149.5,-127.5 0,-127.5"/>
<text text-anchor="middle" x="74.75" y="-249.7" font-family="Times,serif" font-size="14.00">t_student</text>
<polyline fill="none" stroke="black" points="0,-242.5 149.5,-242.5"/>
<text text-anchor="start" x="8" y="-225.2" font-family="Times,serif" font-size="14.00">age : integer</text>
<text text-anchor="start" x="8" y="-208.7" font-family="Times,serif" font-size="14.00"> school_id : integer</text>
<text text-anchor="start" x="8" y="-192.2" font-family="Times,serif" font-size="14.00"> c_fname : varchar(20)</text>
<text text-anchor="start" x="8" y="-175.7" font-family="Times,serif" font-size="14.00"> email : varchar(255)</text>
<text text-anchor="start" x="8" y="-159.2" font-family="Times,serif" font-size="14.00"> lastname : varchar(255)</text>
<polyline fill="none" stroke="black" points="0,-152 149.5,-152"/>
<text text-anchor="start" x="8" y="-134.7" font-family="Times,serif" font-size="14.00">id : integer</text>
</g>
<!-- student_profile&#45;&gt;t_student -->
<g id="edge1" class="edge">
<title>student_profile&#45;&gt;t_student</title>
<path fill="none" stroke="#595959" d="M74.75,-320.85C74.75,-320.85 74.75,-277.87 74.75,-277.87"/>
<polygon fill="#595959" stroke="#595959" points="78.25,-277.87 74.75,-267.87 71.25,-277.87 78.25,-277.87"/>
<text text-anchor="middle" x="110" y="-288.7" font-family="Times,serif" font-size="14.00">student_id:id</text>
</g>
<!-- t_student&#45;&gt;school -->
<g id="edge2" class="edge">
<title>t_student&#45;&gt;school</title>
<path fill="none" stroke="#595959" d="M74.75,-127.54C74.75,-127.54 74.75,-84.78 74.75,-84.78"/>
<polygon fill="#595959" stroke="#595959" points="78.25,-84.78 74.75,-74.78 71.25,-84.78 78.25,-84.78"/>
<text text-anchor="middle" x="108.12" y="-95.7" font-family="Times,serif" font-size="14.00">school_id:id</text>
</g>
</g>
</svg>
